<?xml version="1.0" encoding="UTF-8"?> <!-- Generator: Adobe Illustrator 23.0.6, SVG Export Plug-In . SVG Version: 6.00 Build 0) --> <svg class="logo-item"xmlns="http://www.w3.org/2000/svg" xmlns:xlink="http://www.w3.org/1999/xlink" id="Layer_1" x="0px" y="0px" viewBox="0 0 644 153" style="enable-background:new 0 0 644 153;" xml:space="preserve"> <style type="text/css"> .st0{fill:none;} .st1{fill:#9DB7B4;} .st2{fill:#0074BC;} .st3{fill:#00B156;} .st4{fill:#004C6C;} </style> <title>bga-logo2019reg_CMYK</title> <g> <path class="st0" d="M-23-23.5"></path> <path class="st0" d="M-23,176.5"></path> <path class="st0" d="M667,176.5"></path> <path class="st0" d="M667-23.5"></path> </g> <g> <path class="st1" d="M241.9,130.5h-11.1l-3.1-8.8h-15.5l-3.1,8.8h-10.6L215,87.1h10.6L241.9,130.5z M225.4,113.8L220,98.3 l-5.4,15.6L225.4,113.8z"></path> <path class="st1" d="M283.4,130.5h-25.2V87.1h10.1v35h15V130.5z"></path> <path class="st1" d="M325.8,130.5h-25.2V87.1h10.1v35h15V130.5z"></path> <path class="st1" d="M353.2,130.5H343V87.1h10.2L353.2,130.5z"></path> <path class="st1" d="M412.8,130.5h-11.1l-3.1-8.8h-15.5l-3.1,8.8h-10.6L385.9,87h10.6L412.8,130.5z M396.3,113.8l-5.4-15.6 l-5.4,15.6H396.3z"></path> <path class="st1" d="M468.4,130.5H458l-19.1-29.5c0,0,0.2,5.2,0.2,9.8v19.6h-9.9V87.1H440l18.6,29.2c0,0-0.2-4.9-0.2-9.5V87.1h10 L468.4,130.5z"></path> <path class="st1" d="M525.2,125.4c-2.2,2.3-6.8,5.9-15.7,5.9c-12.8,0-22.8-8.4-22.8-22.4s10.1-22.4,22.8-22.4 c9,0,13.8,3.7,14.9,4.9l-3.2,8.4c-0.8-1.1-5.5-4.5-11.2-4.5c-7.4,0-13,4.9-13,13.4s5.9,13.4,13,13.4c4.4,0.1,8.6-1.5,11.7-4.6 L525.2,125.4z"></path> <path class="st1" d="M571.2,130.5h-28.7V87.1h28.1v8.1h-18v8.9h17v8.1h-17v10.1h18.6V130.5z"></path> <path class="st2" d="M3.5,71.4H3.2c-1.7-0.2-2.9-1.7-2.7-3.4c0,0,0,0,0,0C4.6,32.6,32.6,4.6,68,0.5c1.7-0.2,3.2,1,3.4,2.7 c0.2,1.7-1,3.2-2.7,3.4C36,10.4,10.3,36.1,6.5,68.7C6.4,70.3,5.1,71.4,3.5,71.4z M23,68.8C26.5,45.1,45.1,26.5,68.8,23 c1.7-0.3,2.7-1.9,2.4-3.6c-0.3-1.5-1.7-2.6-3.3-2.5c-26.4,3.9-47.1,24.6-51,51c-0.2,1.7,0.9,3.2,2.6,3.5c0.1,0,0.3,0,0.4,0 C21.5,71.4,22.8,70.3,23,68.8z M39.5,69c3-14.8,14.6-26.5,29.4-29.5c1.7-0.3,2.7-2,2.4-3.6s-2-2.7-3.6-2.4 c-17.2,3.5-30.7,17-34.2,34.2c-0.3,1.7,0.7,3.3,2.4,3.6c0.2,0,0.4,0.1,0.6,0.1C38,71.4,39.3,70.4,39.5,69L39.5,69z M56.3,69.4 c2.2-6,7-10.8,13-13c1.6-0.7,2.3-2.5,1.6-4c-0.6-1.4-2.1-2.2-3.6-1.8c-7.8,2.8-14,8.9-16.8,16.8c-0.7,1.6,0.1,3.4,1.6,4 c1.6,0.7,3.4-0.1,4-1.6C56.2,69.6,56.3,69.5,56.3,69.4L56.3,69.4z M153,68.4c0-1.7-1.4-3.1-3.1-3.1H97.1c-1.7,0-3.1,1.4-3.1,3.1 s1.4,3.1,3.1,3.1H150C151.7,71.4,153,70.1,153,68.4L153,68.4z M149,52c0-1.7-1.4-3.1-3.1-3.1H84.7c-1.7,0-3.1,1.4-3.1,3.1 c0,1.7,1.4,3.1,3.1,3.1h61.2C147.6,55.1,149,53.8,149,52C149,52.1,149,52,149,52z M140.8,35.7c0-1.7-1.4-3.1-3.1-3.1H84.7 c-1.7,0-3.1,1.4-3.1,3.1c0,1.7,1.4,3.1,3.1,3.1h53.1C139.4,38.8,140.8,37.4,140.8,35.7L140.8,35.7z M126.5,19.4 c0-1.7-1.4-3.1-3-3.1c0,0,0,0,0,0H84.7c-1.7,0.1-3,1.5-2.9,3.2c0.1,1.6,1.3,2.8,2.9,2.9h38.8C125.1,22.5,126.5,21.1,126.5,19.4z M104.1,3.1c0-1.7-1.4-3.1-3.1-3.1c0,0,0,0,0,0H84.7c-1.7,0-3.1,1.4-3.1,3.1c0,1.7,1.4,3.1,3.1,3.1H101 C102.7,6.1,104.1,4.8,104.1,3.1C104.1,3.1,104.1,3.1,104.1,3.1z"></path> <path class="st3" d="M84.7,152.6c-1.7,0.1-3.1-1.3-3.2-3c-0.1-1.6,1.2-3,2.8-3.2c32.6-3.8,58.3-29.5,62.1-62.1 c0.1-1.7,1.6-2.9,3.3-2.8c1.7,0.1,2.9,1.6,2.8,3.3c0,0.1,0,0.1,0,0.2c-4.1,35.4-32.1,63.4-67.6,67.5L84.7,152.6z M85.1,136.1 c26.4-3.9,47.1-24.6,51-51c0.2-1.7-0.9-3.2-2.6-3.5c-1.7-0.2-3.2,0.9-3.5,2.6c-3.5,23.7-22.1,42.3-45.8,45.8 c-1.7,0.2-2.8,1.8-2.6,3.5c0.2,1.5,1.5,2.6,3,2.6C84.8,136.1,85,136.1,85.1,136.1L85.1,136.1z M85.3,119.5 c17.2-3.5,30.7-17,34.2-34.2c0.3-1.7-0.7-3.3-2.4-3.6c-1.7-0.3-3.3,0.7-3.6,2.4l0,0c-3,14.8-14.6,26.4-29.4,29.4 c-1.7,0.3-2.7,1.9-2.4,3.6c0.3,1.4,1.5,2.5,3,2.5C84.9,119.6,85.1,119.6,85.3,119.5z M85.7,102.5c7.8-2.8,14-8.9,16.8-16.8 c0.7-1.6-0.1-3.4-1.6-4s-3.4,0.1-4,1.6c-0.1,0.1-0.1,0.3-0.1,0.4c-2.2,6.1-6.9,10.8-13,13c-1.6,0.7-2.3,2.5-1.6,4 C82.7,102.2,84.2,102.9,85.7,102.5L85.7,102.5z M59,84.7c0-1.7-1.3-3-3-3.1H3.1C1.4,81.6,0,83,0,84.7c0,1.7,1.4,3.1,3.1,3.1H56 C57.7,87.7,59,86.3,59,84.7z M71.4,101c0-1.7-1.4-3.1-3.1-3.1H7.1c-1.7,0-3.1,1.4-3.1,3.1c0,1.7,1.4,3.1,3.1,3.1h61.2 C70,104.1,71.4,102.7,71.4,101L71.4,101z M71.4,117.3c0-1.7-1.4-3.1-3.1-3.1h-53c-1.7,0-3.1,1.4-3.1,3.1c0,1.7,1.4,3.1,3.1,3.1 h53.1C70,120.4,71.4,119,71.4,117.3L71.4,117.3z M71.4,133.7c0-1.7-1.4-3.1-3.1-3.1H29.6c-1.7,0.1-3,1.5-2.9,3.2 c0.1,1.6,1.3,2.8,2.9,2.9h38.8C70,136.7,71.4,135.4,71.4,133.7C71.4,133.7,71.4,133.7,71.4,133.7L71.4,133.7z M71.4,150 c0-1.7-1.4-3.1-3.1-3.1H52c-1.7,0-3.1,1.4-3.1,3.1c0,1.7,1.4,3.1,3.1,3.1c0,0,0,0,0,0h16.3C70,153.1,71.4,151.7,71.4,150 C71.4,150,71.4,150,71.4,150L71.4,150z"></path> <path class="st4" d="M231.7,63c-2.8,2-6.7,2.8-11.1,2.8h-17.8V22.4h14.8c4,0,7.8,0.3,10.7,1.8c3.5,1.7,5.7,5.3,5.5,9.1 c0.1,4.2-2.5,8-6.4,9.6V43c5.4,1.3,9,5,9,10.3C236.7,57.2,234.9,60.8,231.7,63z M221.7,30.8c-1.2-0.8-2.3-0.9-4.5-0.9H213v10h4 c2.3,0,3.6-0.1,4.8-1c1.4-0.9,2.2-2.5,2.1-4.2C224,33.1,223.1,31.6,221.7,30.8L221.7,30.8z M224,48.2c-1.5-1.1-3.2-1.2-5.4-1.2H213 v11.1h5.6c2.2,0,3.9-0.1,5.4-1.2c2.4-1.8,2.9-5.1,1.2-7.5C224.8,48.9,224.5,48.5,224,48.2L224,48.2z"></path> <path class="st4" d="M279.8,65.8h-25.2V22.4h10.1v35h15L279.8,65.8z"></path> <path class="st4" d="M331.8,47.7c0,6.1-1.1,10.3-4.2,13.7c-3.1,3.3-7.7,5.2-14,5.2s-11-1.9-14.1-5.2c-3.1-3.3-4.1-7.6-4.1-13.7 V22.4h10.3v25.3c0,3.1,0.3,5.5,1.7,7.2c3.2,3.4,8.6,3.6,12.1,0.4c0.1-0.1,0.3-0.3,0.4-0.4c1.5-1.8,1.7-4.2,1.7-7.2V22.4h10.3V47.7z "></path> <path class="st4" d="M380.8,65.8H352V22.4h28.1v8.2h-18v8.9h17v8.1h-17v10h18.6L380.8,65.8z"></path> <path class="st4" d="M439.4,59.1c-2.2,1.9-7.4,7.4-19.3,7.4s-22.6-8-22.6-22.4s10.5-22.4,22.7-22.4c11.5,0,16.5,6,17.9,7.6 l-6.7,5.8c-2.8-3.2-6.9-5.1-11.1-5c-7,0-12.4,5.1-12.4,13.9S413.3,58,420.4,58s9.1-2.8,9.1-2.8v-6.4h-9.1V41h19.1V59.1z"></path> <path class="st4" d="M493.5,65.8h-11.8l-9.1-16.6h-3.2v16.6h-10.2V22.4h15.6c4.8,0,8.6,1,11.5,3.1c3.1,2.3,4.9,6,4.8,9.9 c0,8.2-5.3,11.5-8.5,12.5L493.5,65.8z M478.5,31.4c-1.3-0.9-2.9-1.1-5.2-1.1h-4v11.1h4c2.3,0,4-0.2,5.2-1.2c1.5-1,2.3-2.6,2.2-4.4 C480.8,34,479.9,32.3,478.5,31.4L478.5,31.4z"></path> <path class="st4" d="M538.2,65.8h-28.7V22.4h28.1v8.2h-18v8.9h17v8.1h-17v10h18.6V65.8z"></path> <path class="st4" d="M585.8,65.8h-28.7V22.4h28.1v8.2h-18v8.9h17v8.1h-17v10h18.6V65.8z"></path> <path class="st4" d="M644,65.8h-10.5l-19.1-29.5c0,0,0.2,5.2,0.2,9.8v19.7h-10V22.4h10.9l18.7,29.2c0,0-0.2-4.9-0.2-9.5V22.4h9.9 V65.8z"></path> </g> <g id="Layer_3"> <path class="st1" d="M592,98.9c-2.7,2.7-7.2,2.8-9.9,0c-2.7-2.7-2.8-7.2,0-9.9c2.7-2.7,7.2-2.8,9.9,0c1.3,1.3,2.1,3.1,2.1,5 C594.1,95.8,593.3,97.6,592,98.9z M582.8,89.8c-2.3,2.4-2.3,6.2,0.1,8.5c2.4,2.3,6.2,2.3,8.5-0.1c2.3-2.4,2.3-6.2-0.1-8.5 c-1.1-1.1-2.7-1.7-4.2-1.7C585.5,88,583.9,88.6,582.8,89.8z M586.9,90.1c0.7,0,1.4,0.1,2.1,0.3c0.8,0.3,1.3,1.1,1.2,1.9 c0,0.6-0.2,1.2-0.7,1.5c-0.3,0.2-0.7,0.3-1.1,0.4c0.5,0,1,0.3,1.3,0.7c0.2,0.3,0.4,0.8,0.4,1.2v0.6c0,0.2,0,0.4,0,0.6 c0,0.1,0,0.3,0,0.4v0.1h-1.2l0,0c0,0,0,0,0-0.1v-0.8c0.1-0.7-0.2-1.4-0.7-1.8c-0.5-0.2-1-0.3-1.5-0.2h-1.1v3h-1.4v-7.7L586.9,90.1z M588.4,91.4c-0.5-0.2-1.1-0.3-1.6-0.3h-1.1v2.8h1.2c0.4,0,0.9,0,1.3-0.2c0.5-0.2,0.8-0.7,0.8-1.2C588.9,92,588.8,91.6,588.4,91.4 L588.4,91.4z"></path> </g> </svg> 
